<?xml version="1.0" encoding="utf-8"?>
<!-- Generator: Adobe Illustrator 24.0.1, SVG Export Plug-In . SVG Version: 6.00 Build 0)  -->
<svg version="1.1" id="Layer_1" xmlns="http://www.w3.org/2000/svg" xmlns:xlink="http://www.w3.org/1999/xlink" x="0px" y="0px"
	 viewBox="0 0 241.22 100" style="enable-background:new 0 0 241.22 100;" xml:space="preserve">
<style type="text/css">
	.st0{fill:#EE931D;}
	.st1{fill:#626464;}
	.st2{fill:#1D1D1B;}
	.st3{font-family:'ArialRoundedMTBold';}
	.st4{font-size:18.1595px;}
</style>
<g>
	<g>
		<g>
			<g>
				<polygon class="st0" points="68.06,58.23 35.78,77.4 3,58.23 				"/>
				<polygon class="st0" points="3,58.23 3.01,20.69 35.85,2.68 				"/>
				<polygon class="st0" points="35.84,2.7 68.06,20.26 68.06,58.23 				"/>
			</g>
		</g>
		<g>
			<g>
				<rect x="76.1" y="9.9" class="st1" width="3.56" height="60.3"/>
			</g>
		</g>
		<g>
			<g>
				<path class="st1" d="M118.41,58.51c-1.07,1.02-2.25,1.9-3.52,2.63c-1.28,0.73-2.67,1.29-4.19,1.66
					c-1.52,0.38-3.22,0.57-5.1,0.57c-2.85,0-5.49-0.62-7.93-1.86c-2.44-1.24-4.55-2.94-6.32-5.09c-1.77-2.15-3.16-4.69-4.16-7.62
					c-1-2.93-1.5-6.06-1.5-9.38v-0.13c0-3.33,0.5-6.44,1.5-9.35c1-2.91,2.39-5.46,4.16-7.65c1.78-2.2,3.9-3.93,6.38-5.19
					c2.48-1.26,5.21-1.9,8.21-1.9c1.81,0,3.47,0.18,4.96,0.53c1.5,0.36,2.86,0.84,4.08,1.46c1.22,0.62,2.35,1.38,3.38,2.26
					c1.04,0.89,2,1.86,2.88,2.93l-5.44,7.52c-1.52-1.64-3.06-2.93-4.63-3.86s-3.34-1.4-5.3-1.4c-1.63,0-3.13,0.38-4.52,1.13
					c-1.39,0.76-2.58,1.8-3.58,3.13s-1.78,2.87-2.33,4.63c-0.55,1.75-0.83,3.63-0.83,5.62v0.13c0,2,0.28,3.88,0.83,5.66
					c0.55,1.78,1.32,3.33,2.3,4.66c0.98,1.33,2.16,2.39,3.55,3.16c1.39,0.78,2.91,1.16,4.58,1.16c2.22,0,4.09-0.49,5.63-1.46
					c1.53-0.98,3.06-2.31,4.58-3.99l5.44,6.59C120.52,56.34,119.48,57.49,118.41,58.51z"/>
				<path class="st1" d="M159.35,58.51c-1.07,1.02-2.25,1.9-3.52,2.63c-1.28,0.73-2.67,1.29-4.19,1.66
					c-1.52,0.38-3.22,0.57-5.1,0.57c-2.85,0-5.49-0.62-7.93-1.86c-2.44-1.24-4.55-2.94-6.32-5.09c-1.77-2.15-3.16-4.69-4.16-7.62
					c-1-2.93-1.5-6.06-1.5-9.38v-0.13c0-3.33,0.5-6.44,1.5-9.35c1-2.91,2.39-5.46,4.16-7.65c1.77-2.2,3.9-3.93,6.38-5.19
					c2.48-1.26,5.21-1.9,8.21-1.9c1.81,0,3.47,0.18,4.96,0.53c1.5,0.36,2.86,0.84,4.08,1.46c1.22,0.62,2.35,1.38,3.38,2.26
					c1.03,0.89,2,1.86,2.88,2.93l-5.44,7.52c-1.52-1.64-3.06-2.93-4.63-3.86c-1.57-0.93-3.34-1.4-5.3-1.4
					c-1.63,0-3.13,0.38-4.52,1.13c-1.39,0.76-2.58,1.8-3.58,3.13c-1,1.33-1.77,2.87-2.33,4.63c-0.55,1.75-0.83,3.63-0.83,5.62v0.13
					c0,2,0.28,3.88,0.83,5.66c0.55,1.78,1.32,3.33,2.3,4.66c0.98,1.33,2.16,2.39,3.55,3.16c1.39,0.78,2.91,1.16,4.58,1.16
					c2.22,0,4.09-0.49,5.63-1.46c1.53-0.98,3.06-2.31,4.58-3.99l5.44,6.59C161.45,56.34,160.42,57.49,159.35,58.51z"/>
				<path class="st1" d="M200.28,58.51c-1.07,1.02-2.25,1.9-3.52,2.63c-1.28,0.73-2.67,1.29-4.19,1.66
					c-1.52,0.38-3.22,0.57-5.1,0.57c-2.85,0-5.49-0.62-7.93-1.86c-2.44-1.24-4.55-2.94-6.32-5.09c-1.77-2.15-3.16-4.69-4.16-7.62
					c-1-2.93-1.5-6.06-1.5-9.38v-0.13c0-3.33,0.5-6.44,1.5-9.35c1-2.91,2.39-5.46,4.16-7.65c1.77-2.2,3.9-3.93,6.38-5.19
					c2.48-1.26,5.21-1.9,8.21-1.9c1.81,0,3.47,0.18,4.96,0.53c1.5,0.36,2.86,0.84,4.08,1.46c1.22,0.62,2.35,1.38,3.38,2.26
					c1.03,0.89,2,1.86,2.88,2.93l-5.44,7.52c-1.52-1.64-3.06-2.93-4.63-3.86c-1.57-0.93-3.34-1.4-5.3-1.4
					c-1.63,0-3.13,0.38-4.52,1.13c-1.39,0.76-2.58,1.8-3.58,3.13c-1,1.33-1.77,2.87-2.33,4.63c-0.55,1.75-0.83,3.63-0.83,5.62v0.13
					c0,2,0.28,3.88,0.83,5.66c0.55,1.78,1.32,3.33,2.3,4.66c0.98,1.33,2.16,2.39,3.55,3.16c1.39,0.78,2.91,1.16,4.58,1.16
					c2.22,0,4.09-0.49,5.63-1.46c1.53-0.98,3.06-2.31,4.58-3.99l5.44,6.59C202.39,56.34,201.35,57.49,200.28,58.51z"/>
				<path class="st1" d="M210.21,62.57V15.98h8.54v37.34h19.36v9.25H210.21z"/>
			</g>
		</g>
	</g>
	<text transform="matrix(0.7927 0 0 1 3.8496 94.2363)" class="st2 st3 st4">CrossCountry Construction Ltd.</text>
</g>
</svg>
